Coordinates
version=1
nRows=16
nColumns=40
inDegrees=yes

Units are S.I. units (second, meters, Newtons, ...)
If the header above contains a line with 'inDegrees', this indicates whether rotational values are in degrees (yes) or radians (no).

endheader
time	pelvis_tilt	pelvis_list	pelvis_rotation	pelvis_tx	pelvis_ty	pelvis_tz	hip_flexion_r	hip_adduction_r	hip_rotation_r	knee_angle_r	knee_angle_r_beta	ankle_angle_r	subtalar_angle_r	mtp_angle_r	hip_flexion_l	hip_adduction_l	hip_rotation_l	knee_angle_l	knee_angle_l_beta	ankle_angle_l	subtalar_angle_l	mtp_angle_l	lumbar_extension	lumbar_bending	lumbar_rotation	arm_flex_r	arm_add_r	arm_rot_r	elbow_flex_r	pro_sup_r	wrist_flex_r	wrist_dev_r	arm_flex_l	arm_add_l	arm_rot_l	elbow_flex_l	pro_sup_l	wrist_flex_l	wrist_dev_l
      4.68000000	    -44.43429850	     -2.19834346	      0.54399748	     -0.39956091	      0.58622030	     -0.89240834	    109.54217636	    -20.89917811	     -3.79847260	     97.30514373	      1.69829514	     30.29429331	      0.00000000	      0.00000000	    112.60727495	    -21.49632745	      1.73885621	     97.43998660	      1.70064859	     31.07706429	      0.00000000	      0.00000000	    -15.28606616	      3.11676327	     -4.43147582	    -35.19410564	    -40.92581923	      6.53022623	    120.83401096	     87.68748561	      0.00000000	      0.00000000	    -45.32976102	    -34.23934108	      0.93683311	    116.91675809	     88.11478612	      0.00000000	      0.00000000
      4.68500000	    -44.51331597	     -2.13036887	      0.45304736	     -0.39969729	      0.58606706	     -0.89230781	    109.64607092	    -20.72101973	     -3.69223976	     97.27524115	      1.69777324	     30.30973378	      0.00000000	      0.00000000	    112.67599588	    -21.68859214	      1.62939682	     97.47113693	      1.70119227	     31.00368013	      0.00000000	      0.00000000	    -15.23807463	      3.05057722	     -4.33985729	    -35.20713017	    -40.95199638	      6.54133355	    120.92502786	     87.72685013	      0.00000000	      0.00000000	    -45.33894178	    -34.31104782	      0.91808770	    116.94508909	     88.11726166	      0.00000000	      0.00000000
      4.69000000	    -44.42727908	     -2.15460137	      0.49403832	     -0.39924014	      0.58619465	     -0.89258526	    109.51206314	    -20.79833702	     -3.70333314	     97.27971333	      1.69785129	     30.37473447	      0.00000000	      0.00000000	    112.55313301	    -21.72502783	      1.55412164	     97.49665742	      1.70163768	     31.02679362	      0.00000000	      0.00000000	    -15.31717977	      3.13767075	     -4.40532001	    -34.97133036	    -41.14343439	      6.73584921	    120.87291499	     87.72215334	      0.00000000	      0.00000000	    -45.27090428	    -34.35555817	      1.05912925	    116.83243757	     88.12239835	      0.00000000	      0.00000000
      4.69500000	    -44.33397728	     -2.23422950	      0.71746696	     -0.39871584	      0.58638025	     -0.89330557	    109.34808495	    -21.11306535	     -3.74706009	     97.33242959	      1.69877137	     30.53229310	      0.00000000	      0.00000000	    112.39519672	    -21.51364432	      1.47387962	     97.50465154	      1.70177721	     31.10594198	      0.00000000	      0.00000000	    -15.38426157	      3.35906484	     -4.61284104	    -34.77923312	    -41.30810687	      6.93140752	    120.86292248	     87.66187573	      0.00000000	      0.00000000	    -45.13294701	    -34.37951822	      1.25793569	    116.71899475	     88.12930883	      0.00000000	      0.00000000
      4.70000000	    -44.06693799	     -2.24292514	      0.79229626	     -0.39775672	      0.58702130	     -0.89364953	    108.97217674	    -21.23282916	     -3.76479982	     97.35302007	      1.69913074	     30.63476139	      0.00000000	      0.00000000	    112.03241336	    -21.54832626	      1.34301719	     97.55065452	      1.70258011	     31.06483425	      0.00000000	      0.00000000	    -15.65097686	      3.45013547	     -4.74647578	    -34.37180286	    -41.46738401	      7.27154470	    120.72564575	     87.65514382	      0.00000000	      0.00000000	    -45.00532222	    -34.37164025	      1.34183677	    116.58530282	     88.13736475	      0.00000000	      0.00000000
      4.70500000	    -43.64110783	     -2.23128532	      0.38181278	     -0.39632950	      0.58806987	     -0.89263786	    108.31784498	    -20.74823457	     -3.93567157	     97.30900708	      1.69836257	     30.58015354	      0.00000000	      0.00000000	    111.54333249	    -22.23384849	      1.33728845	     97.68091586	      1.70485360	     31.12606797	      0.00000000	      0.00000000	    -16.09397241	      3.33050877	     -4.29352725	    -34.10513004	    -41.42653968	      7.48454361	    120.52622441	     87.50505784	      0.00000000	      0.00000000	    -44.78416673	    -34.54440138	      1.45477414	    116.42095606	     88.22881728	      0.00000000	      0.00000000
      4.71000000	    -43.36950420	     -2.18385171	      0.09689220	     -0.39518742	      0.58893127	     -0.89200408	    107.83578239	    -20.40904361	     -4.03154784	     97.19612458	      1.69639239	     30.99257976	      0.00000000	      0.00000000	    111.16812566	    -22.71754890	      1.27672823	     97.74094030	      1.70590122	     31.25074638	      0.00000000	      0.00000000	    -16.31651276	      3.22148647	     -4.05893439	    -33.59114759	    -41.51922992	      7.95216588	    120.34506662	     87.75368891	      0.00000000	      0.00000000	    -44.54646387	    -34.73043002	      1.70092270	    116.25272454	     88.05819638	      0.00000000	      0.00000000
      4.71500000	    -43.53160733	     -1.97976643	     -0.31257759	     -0.39514925	      0.58928776	     -0.89109552	    107.96106225	    -19.80508034	     -3.90315212	     97.00636180	      1.69308041	     30.97843711	      0.00000000	      0.00000000	    111.20778596	    -23.23874878	      1.17363859	     97.68500879	      1.70492503	     31.24193901	      0.00000000	      0.00000000	    -16.06078830	      2.90094029	     -3.74998227	    -33.25061157	    -41.56697643	      8.27319066	    120.24216376	     87.75737776	      0.00000000	      0.00000000	    -44.46518946	    -34.95278679	      1.77667482	    116.24341762	     88.04041916	      0.00000000	      0.00000000
      4.72000000	    -43.51235139	     -1.76108601	     -0.31071053	     -0.39458435	      0.59011175	     -0.89140554	    107.91957480	    -19.70647943	     -3.60276824	     96.89415787	      1.69112208	     30.87696492	      0.00000000	      0.00000000	    110.94626182	    -23.29936456	      0.87500381	     97.61650189	      1.70372936	     30.91195792	      0.00000000	      0.00000000	    -15.91797588	      2.74965731	     -3.71894581	    -32.85687518	    -41.72440765	      8.84333135	    120.00911672	     87.22517807	      0.00000000	      0.00000000	    -43.94867077	    -35.49730502	      2.45334976	    116.03821439	     88.27333094	      0.00000000	      0.00000000
      4.72500000	    -42.69666277	     -1.96101473	      0.21735466	     -0.39185154	      0.59208448	     -0.89273987	    106.77355473	    -20.50418396	     -3.82016482	     97.05419406	      1.69391524	     31.13949703	      0.00000000	      0.00000000	    109.81406943	    -22.82913600	      0.71320837	     97.59930296	      1.70342918	     31.22948186	      0.00000000	      0.00000000	    -16.65578982	      3.17964527	     -4.18250597	    -32.45718098	    -41.68832877	      8.79749299	    119.76578484	     87.51478689	      0.00000000	      0.00000000	    -43.58433005	    -35.24472560	      2.52406930	    115.67834370	     88.09380194	      0.00000000	      0.00000000
      4.73000000	    -42.75130195	     -1.88208836	     -0.26654755	     -0.39137089	      0.59292595	     -0.89155200	    106.61473166	    -19.81688217	     -3.87405240	     96.77794743	      1.68909383	     31.25294557	      0.00000000	      0.00000000	    109.73223712	    -23.35091103	      0.83104716	     97.51097986	      1.70188766	     31.53059021	      0.00000000	      0.00000000	    -16.42006985	      2.95853156	     -4.10965828	    -31.39560439	    -42.03870085	      9.85895515	    119.58273505	     87.69414186	      0.00000000	      0.00000000	    -43.78656351	    -35.12768533	      2.18294732	    115.64508819	     88.03407741	      0.00000000	      0.00000000
      4.73500000	    -41.84420634	     -1.67669326	     -0.47984944	     -0.38860828	      0.59572596	     -0.89114724	    105.38250954	    -19.58562566	     -3.85163384	     96.68891182	      1.68753986	     31.33969072	      0.00000000	      0.00000000	    108.38693515	    -23.84970493	      0.46037958	     97.54006739	      1.70239533	     31.55098230	      0.00000000	      0.00000000	    -17.22204480	      2.69065959	     -3.95598904	    -30.65269845	    -41.96904379	     10.38173840	    119.13842067	     87.68738315	      0.00000000	      0.00000000	    -43.22138625	    -35.36757938	      2.58299233	    115.30466233	     88.04558413	      0.00000000	      0.00000000
      4.74000000	    -41.35045646	     -1.70151864	     -1.82287635	     -0.38585475	      0.59759875	     -0.88755383	    104.36098651	    -17.90965715	     -4.29683229	     96.43194900	      1.68305501	     31.60983392	      0.00000000	      0.00000000	    107.85601318	    -25.72001537	      0.74167540	     97.75673103	      1.70617682	     31.80885608	      0.00000000	      0.00000000	    -17.46037869	      2.23161276	     -2.79159948	    -29.78074705	    -41.82451562	     11.25161778	    118.60607954	     87.66482326	      0.00000000	      0.00000000	    -43.00718615	    -35.59243665	      2.79393615	    114.97197334	     88.03699588	      0.00000000	      0.00000000
      4.74500000	    -42.00511257	     -1.56368731	     -0.10679154	     -0.38725823	      0.59809592	     -0.89234119	    105.22370945	    -19.81000148	     -3.50591037	     96.29578104	      1.68067843	     31.53670732	      0.00000000	      0.00000000	    107.90251408	    -23.14355417	      0.29558651	     96.98654663	      1.69273457	     31.67138445	      0.00000000	      0.00000000	    -16.45446247	      2.82162257	     -4.46686143	    -29.66697074	    -42.22540257	     11.19890342	    118.86488626	     87.65088565	      0.00000000	      0.00000000	    -42.62054428	    -35.71990851	      3.21845078	    115.00440900	     88.04636250	      0.00000000	      0.00000000
      4.75000000	    -41.55684381	     -1.64602385	     -0.78586387	     -0.38516685	      0.60061746	     -0.89039676	    104.27049637	    -18.90876333	     -3.85103404	     95.97269069	      1.67503944	     31.40012382	      0.00000000	      0.00000000	    107.22077972	    -23.95889642	      0.57688818	     96.80758796	      1.68961115	     31.70973612	      0.00000000	      0.00000000	    -16.67957468	      2.67608262	     -3.82872930	    -28.98833030	    -41.94801360	     11.61440516	    118.58152559	     87.65161412	      0.00000000	      0.00000000	    -42.30792590	    -35.94397355	      3.32511635	    114.69170699	     88.03903403	      0.00000000	      0.00000000
      4.75500000	    -41.12672439	     -1.52809229	     -0.61354932	     -0.38292985	      0.60309846	     -0.89113069	    103.52915165	    -19.12910632	     -3.77023139	     95.81565775	      1.67229870	     31.65306834	      0.00000000	      0.00000000	    106.29094093	    -23.80320893	      0.23859715	     96.68001225	      1.68738453	     31.91680526	      0.00000000	      0.00000000	    -16.68864359	      2.68392646	     -4.06960456	    -28.22328121	    -42.10109361	     12.34187688	    118.07853547	     87.64152702	      0.00000000	      0.00000000	    -41.53702314	    -36.15129666	      4.11089108	    114.20994850	     88.04257277	      0.00000000	      0.00000000
